<svg width="116" height="49" viewBox="0 0 116 49" fill="none" xmlns="http://www.w3.org/2000/svg">
<path d="M15.7498 34.5L19.4698 45H20.3698L23.2348 36.795H23.3098L26.0848 45H26.9698L30.6898 34.5H29.9998L26.8948 43.26H26.8348L23.9098 34.5H23.2648L20.2798 43.215H20.2198L17.1298 34.5H15.7498ZM38.9948 41.58V41.265C38.9948 40.595 38.8998 40.015 38.7098 39.525C38.5198 39.035 38.2598 38.63 37.9298 38.31C37.6098 37.99 37.2348 37.75 36.8048 37.59C36.3748 37.43 35.9198 37.35 35.4398 37.35C34.9298 37.35 34.4598 37.44 34.0298 37.62C33.5998 37.79 33.2248 38.045 32.9048 38.385C32.5848 38.715 32.3348 39.12 32.1548 39.6C31.9748 40.07 31.8848 40.605 31.8848 41.205C31.8848 41.705 31.9598 42.195 32.1098 42.675C32.2698 43.145 32.5048 43.57 32.8148 43.95C33.1348 44.32 33.5348 44.62 34.0148 44.85C34.5048 45.07 35.0798 45.18 35.7398 45.18C36.3798 45.18 36.9698 45.07 37.5098 44.85C38.0498 44.62 38.5198 44.295 38.9198 43.875L38.4398 43.395C38.2298 43.575 38.0298 43.74 37.8398 43.89C37.6598 44.04 37.4748 44.165 37.2848 44.265C37.0948 44.365 36.8948 44.445 36.6848 44.505C36.4848 44.555 36.2598 44.58 36.0098 44.58C35.7298 44.58 35.4298 44.54 35.1098 44.46C34.7998 44.37 34.5098 44.215 34.2398 43.995C33.9698 43.775 33.7448 43.47 33.5648 43.08C33.3848 42.69 33.2948 42.19 33.2948 41.58H38.9948ZM33.2948 40.98C33.2948 40.58 33.3348 40.195 33.4148 39.825C33.5048 39.445 33.6348 39.11 33.8048 38.82C33.9848 38.53 34.2098 38.3 34.4798 38.13C34.7498 37.95 35.0698 37.86 35.4398 37.86C36.1498 37.86 36.6998 38.14 37.0898 38.7C37.4898 39.25 37.6898 40.01 37.6898 40.98H33.2948ZM40.948 34.5H42.223V38.73H42.283C42.383 38.47 42.513 38.255 42.673 38.085C42.843 37.905 43.033 37.76 43.243 37.65C43.453 37.54 43.673 37.46 43.903 37.41C44.143 37.36 44.383 37.335 44.623 37.335C45.123 37.335 45.583 37.43 46.003 37.62C46.423 37.8 46.783 38.06 47.083 38.4C47.393 38.74 47.633 39.15 47.803 39.63C47.973 40.11 48.058 40.645 48.058 41.235C48.058 41.835 47.973 42.38 47.803 42.87C47.633 43.35 47.393 43.765 47.083 44.115C46.783 44.455 46.423 44.72 46.003 44.91C45.583 45.09 45.123 45.18 44.623 45.18C43.433 45.18 42.653 44.715 42.283 43.785H42.223V45H40.948V34.5ZM42.223 42C42.223 42.33 42.273 42.645 42.373 42.945C42.483 43.235 42.633 43.49 42.823 43.71C43.013 43.92 43.233 44.09 43.483 44.22C43.743 44.34 44.018 44.4 44.308 44.4C44.618 44.4 44.913 44.345 45.193 44.235C45.483 44.115 45.733 43.93 45.943 43.68C46.153 43.43 46.318 43.105 46.438 42.705C46.568 42.305 46.633 41.825 46.633 41.265C46.633 40.695 46.568 40.21 46.438 39.81C46.318 39.41 46.148 39.085 45.928 38.835C45.718 38.575 45.473 38.39 45.193 38.28C44.913 38.16 44.618 38.1 44.308 38.1C44.028 38.1 43.763 38.16 43.513 38.28C43.263 38.39 43.043 38.56 42.853 38.79C42.663 39.01 42.508 39.28 42.388 39.6C42.278 39.92 42.223 40.285 42.223 40.695V42ZM54.5999 42.345C54.6199 42.775 54.7299 43.165 54.9299 43.515C55.1399 43.865 55.4199 44.165 55.7699 44.415C56.1299 44.655 56.5499 44.845 57.0299 44.985C57.5099 45.115 58.0349 45.18 58.6049 45.18C59.1849 45.18 59.7049 45.11 60.1649 44.97C60.6349 44.83 61.0349 44.63 61.3649 44.37C61.6949 44.11 61.9499 43.795 62.1299 43.425C62.3099 43.055 62.3999 42.645 62.3999 42.195C62.3999 41.575 62.2449 41.07 61.9349 40.68C61.6249 40.28 61.2349 39.95 60.7649 39.69C60.3049 39.42 59.7999 39.195 59.2499 39.015C58.7099 38.835 58.2049 38.645 57.7349 38.445C57.2749 38.245 56.8899 38.015 56.5799 37.755C56.2699 37.495 56.1149 37.15 56.1149 36.72C56.1149 36.48 56.1649 36.255 56.2649 36.045C56.3749 35.835 56.5299 35.655 56.7299 35.505C56.9399 35.345 57.1949 35.22 57.4949 35.13C57.7949 35.03 58.1399 34.98 58.5299 34.98C59.1799 34.98 59.7299 35.12 60.1799 35.4C60.6399 35.67 60.9099 36.1 60.9899 36.69H62.0099C61.9499 36.32 61.8149 35.99 61.6049 35.7C61.3949 35.4 61.1299 35.15 60.8099 34.95C60.4899 34.74 60.1249 34.585 59.7149 34.485C59.3149 34.375 58.8949 34.32 58.4549 34.32C57.9949 34.32 57.5549 34.38 57.1349 34.5C56.7249 34.62 56.3599 34.795 56.0399 35.025C55.7299 35.255 55.4799 35.545 55.2899 35.895C55.1099 36.245 55.0199 36.645 55.0199 37.095C55.0199 37.685 55.1699 38.16 55.4699 38.52C55.7699 38.88 56.1449 39.18 56.5949 39.42C57.0549 39.66 57.5499 39.865 58.0799 40.035C58.6099 40.205 59.0999 40.4 59.5499 40.62C60.0099 40.83 60.3899 41.09 60.6899 41.4C60.9899 41.71 61.1399 42.125 61.1399 42.645C61.1399 43.295 60.8999 43.77 60.4199 44.07C59.9499 44.37 59.3199 44.52 58.5299 44.52C57.8999 44.52 57.3949 44.44 57.0149 44.28C56.6349 44.11 56.3449 43.91 56.1449 43.68C55.9449 43.45 55.8099 43.215 55.7399 42.975C55.6699 42.725 55.6299 42.515 55.6199 42.345H54.5999ZM63.8699 38.1V37.5H65.1749V35.19H66.4499V37.5H68.2649V38.1H66.4499V43.08C66.4499 43.2 66.4549 43.34 66.4649 43.5C66.4749 43.65 66.5049 43.795 66.5549 43.935C66.6049 44.065 66.6799 44.175 66.7799 44.265C66.8899 44.355 67.0399 44.4 67.2299 44.4C67.4699 44.4 67.6699 44.31 67.8299 44.13C67.9899 43.95 68.1199 43.755 68.2199 43.545L68.9249 44.265C68.4349 44.755 67.8799 45 67.2599 45C66.9999 45 66.7449 44.955 66.4949 44.865C66.2449 44.775 66.0199 44.64 65.8199 44.46C65.6299 44.27 65.4749 44.03 65.3549 43.74C65.2349 43.45 65.1749 43.11 65.1749 42.72V38.1H63.8699ZM70.2449 37.5V42.375C70.2449 42.555 70.2599 42.805 70.2899 43.125C70.3299 43.435 70.4349 43.745 70.6049 44.055C70.7749 44.355 71.0399 44.62 71.3999 44.85C71.7699 45.07 72.2849 45.18 72.9449 45.18C73.2349 45.19 73.5499 45.13 73.8899 45C74.2399 44.88 74.5899 44.645 74.9399 44.295L75.1799 44.055H75.2399V45H76.5149V37.5H75.2399V42.15C75.2399 42.54 75.1849 42.875 75.0749 43.155C74.9649 43.435 74.8199 43.67 74.6399 43.86C74.4599 44.04 74.2499 44.175 74.0099 44.265C73.7699 44.355 73.5199 44.4 73.2599 44.4C72.8399 44.4 72.5099 44.32 72.2699 44.16C72.0399 43.99 71.8649 43.795 71.7449 43.575C71.6349 43.355 71.5699 43.14 71.5499 42.93C71.5299 42.71 71.5199 42.55 71.5199 42.45V37.5H70.2449ZM85.6207 34.5H84.3457V38.73H84.2857C84.1857 38.47 84.0507 38.255 83.8807 38.085C83.7207 37.905 83.5357 37.76 83.3257 37.65C83.1157 37.54 82.8907 37.46 82.6507 37.41C82.4207 37.36 82.1857 37.335 81.9457 37.335C81.4457 37.335 80.9857 37.43 80.5657 37.62C80.1457 37.8 79.7807 38.06 79.4707 38.4C79.1707 38.74 78.9357 39.15 78.7657 39.63C78.5957 40.11 78.5107 40.645 78.5107 41.235C78.5107 41.835 78.5957 42.38 78.7657 42.87C78.9357 43.35 79.1707 43.765 79.4707 44.115C79.7807 44.455 80.1457 44.72 80.5657 44.91C80.9857 45.09 81.4457 45.18 81.9457 45.18C83.1257 45.18 83.9057 44.715 84.2857 43.785H84.3457V45H85.6207V34.5ZM84.3457 42C84.3457 42.33 84.2907 42.645 84.1807 42.945C84.0707 43.235 83.9207 43.49 83.7307 43.71C83.5507 43.92 83.3307 44.09 83.0707 44.22C82.8207 44.34 82.5507 44.4 82.2607 44.4C81.9407 44.4 81.6407 44.345 81.3607 44.235C81.0807 44.115 80.8357 43.93 80.6257 43.68C80.4157 43.43 80.2457 43.105 80.1157 42.705C79.9957 42.305 79.9357 41.825 79.9357 41.265C79.9357 40.695 79.9957 40.21 80.1157 39.81C80.2457 39.41 80.4157 39.085 80.6257 38.835C80.8457 38.575 81.0957 38.39 81.3757 38.28C81.6557 38.16 81.9507 38.1 82.2607 38.1C82.5407 38.1 82.8057 38.16 83.0557 38.28C83.3057 38.39 83.5257 38.56 83.7157 38.79C83.9057 39.01 84.0557 39.28 84.1657 39.6C84.2857 39.92 84.3457 40.285 84.3457 40.695V42ZM88.4935 37.5V45H89.7685V37.5H88.4935ZM88.3135 35.13C88.3135 35.35 88.3935 35.54 88.5535 35.7C88.7135 35.86 88.9035 35.94 89.1235 35.94C89.3435 35.94 89.5335 35.86 89.6935 35.7C89.8535 35.54 89.9335 35.35 89.9335 35.13C89.9335 34.91 89.8535 34.72 89.6935 34.56C89.5335 34.4 89.3435 34.32 89.1235 34.32C88.9035 34.32 88.7135 34.4 88.5535 34.56C88.3935 34.72 88.3135 34.91 88.3135 35.13ZM99.9477 41.265C99.9477 41.785 99.8577 42.285 99.6777 42.765C99.4977 43.235 99.2377 43.65 98.8977 44.01C98.5677 44.37 98.1627 44.655 97.6827 44.865C97.2127 45.075 96.6827 45.18 96.0927 45.18C95.4927 45.18 94.9477 45.075 94.4577 44.865C93.9777 44.645 93.5677 44.355 93.2277 43.995C92.8977 43.635 92.6377 43.22 92.4477 42.75C92.2677 42.27 92.1777 41.775 92.1777 41.265C92.1777 40.745 92.2677 40.25 92.4477 39.78C92.6377 39.3 92.8977 38.88 93.2277 38.52C93.5677 38.16 93.9777 37.875 94.4577 37.665C94.9477 37.445 95.4927 37.335 96.0927 37.335C96.6827 37.335 97.2127 37.445 97.6827 37.665C98.1627 37.875 98.5677 38.16 98.8977 38.52C99.2377 38.88 99.4977 39.3 99.6777 39.78C99.8577 40.25 99.9477 40.745 99.9477 41.265ZM98.5227 41.265C98.5227 40.565 98.4477 40 98.2977 39.57C98.1477 39.13 97.9527 38.79 97.7127 38.55C97.4727 38.31 97.2077 38.15 96.9177 38.07C96.6277 37.98 96.3477 37.935 96.0777 37.935C95.8077 37.935 95.5277 37.98 95.2377 38.07C94.9477 38.15 94.6777 38.31 94.4277 38.55C94.1877 38.79 93.9877 39.13 93.8277 39.57C93.6777 40 93.6027 40.565 93.6027 41.265C93.6027 41.955 93.6777 42.52 93.8277 42.96C93.9877 43.39 94.1877 43.725 94.4277 43.965C94.6777 44.205 94.9477 44.37 95.2377 44.46C95.5277 44.54 95.8077 44.58 96.0777 44.58C96.3477 44.58 96.6277 44.54 96.9177 44.46C97.2077 44.37 97.4727 44.205 97.7127 43.965C97.9527 43.725 98.1477 43.39 98.2977 42.96C98.4477 42.52 98.5227 41.955 98.5227 41.265Z" fill="white"/>
<path d="M12.9369 17.85L15.3369 23H17.7619L9.61191 5.5H8.36191L0.961914 23H2.11191L4.31191 17.85H12.9369ZM12.4119 16.725H4.78691L8.38691 8.3H8.48691L12.4119 16.725ZM30.9725 23V14.9C30.9725 14.6 30.9475 14.1917 30.8975 13.675C30.8475 13.1417 30.6808 12.625 30.3975 12.125C30.1308 11.6083 29.6975 11.1667 29.0975 10.8C28.4975 10.4167 27.6475 10.225 26.5475 10.225C26.0641 10.2083 25.5225 10.3083 24.9225 10.525C24.3225 10.725 23.7308 11.1167 23.1475 11.7L22.7475 12.1H22.6475V10.5H20.5225V23H22.6475V15.275C22.6475 14.625 22.7391 14.0667 22.9225 13.6C23.1058 13.1333 23.3558 12.7417 23.6725 12.425C23.9891 12.1083 24.3475 11.875 24.7475 11.725C25.1641 11.575 25.5891 11.5 26.0225 11.5C26.7225 11.5 27.2641 11.6417 27.6475 11.925C28.0308 12.1917 28.3058 12.5083 28.4725 12.875C28.6558 13.2417 28.7641 13.6083 28.7975 13.975C28.8308 14.3417 28.8475 14.6083 28.8475 14.775V23H30.9725Z" fill="#FF0000"/>
<path d="M36.2988 23V5.5H42.0488C43.4322 5.5 44.6988 5.725 45.8488 6.175C46.9988 6.60833 47.9822 7.21667 48.7988 8C49.6322 8.76667 50.2738 9.68333 50.7238 10.75C51.1905 11.8167 51.4238 12.9667 51.4238 14.2C51.4238 15.4833 51.1822 16.6667 50.6988 17.75C50.2322 18.8167 49.5822 19.7417 48.7488 20.525C47.9322 21.3083 46.9738 21.9167 45.8738 22.35C44.7738 22.7833 43.5988 23 42.3488 23H36.2988ZM38.5738 21.9H41.3238C42.6905 21.9 43.8488 21.675 44.7988 21.225C45.7655 20.7583 46.5572 20.1583 47.1738 19.425C47.7905 18.6917 48.2405 17.875 48.5238 16.975C48.8072 16.0583 48.9488 15.15 48.9488 14.25C48.9488 13.25 48.7822 12.2917 48.4488 11.375C48.1155 10.4417 47.6238 9.625 46.9738 8.925C46.3405 8.20833 45.5488 7.64167 44.5988 7.225C43.6488 6.80833 42.5572 6.6 41.3238 6.6H38.5738V21.9ZM65.265 17.3V16.775C65.265 15.6583 65.1067 14.6917 64.79 13.875C64.4734 13.0583 64.04 12.3833 63.49 11.85C62.9567 11.3167 62.3317 10.9167 61.615 10.65C60.8984 10.3833 60.14 10.25 59.34 10.25C58.49 10.25 57.7067 10.4 56.99 10.7C56.2734 10.9833 55.6484 11.4083 55.115 11.975C54.5817 12.525 54.165 13.2 53.865 14C53.565 14.7833 53.415 15.675 53.415 16.675C53.415 17.5083 53.54 18.325 53.79 19.125C54.0567 19.9083 54.4484 20.6167 54.965 21.25C55.4984 21.8667 56.165 22.3667 56.965 22.75C57.7817 23.1167 58.74 23.3 59.84 23.3C60.9067 23.3 61.89 23.1167 62.79 22.75C63.69 22.3667 64.4734 21.825 65.14 21.125L64.34 20.325C63.99 20.625 63.6567 20.9 63.34 21.15C63.04 21.4 62.7317 21.6083 62.415 21.775C62.0984 21.9417 61.765 22.075 61.415 22.175C61.0817 22.2583 60.7067 22.3 60.29 22.3C59.8234 22.3 59.3234 22.2333 58.79 22.1C58.2734 21.95 57.79 21.6917 57.34 21.325C56.89 20.9583 56.515 20.45 56.215 19.8C55.915 19.15 55.765 18.3167 55.765 17.3H65.265ZM55.765 16.3C55.765 15.6333 55.8317 14.9917 55.965 14.375C56.115 13.7417 56.3317 13.1833 56.615 12.7C56.915 12.2167 57.29 11.8333 57.74 11.55C58.19 11.25 58.7234 11.1 59.34 11.1C60.5234 11.1 61.44 11.5667 62.09 12.5C62.7567 13.4167 63.09 14.6833 63.09 16.3H55.765ZM76.4955 13.35C76.4955 12.9 76.3788 12.4833 76.1455 12.1C75.9122 11.7167 75.5872 11.3917 75.1705 11.125C74.7705 10.8417 74.2955 10.625 73.7455 10.475C73.2122 10.3083 72.6372 10.225 72.0205 10.225C71.4372 10.225 70.8872 10.3 70.3705 10.45C69.8705 10.6 69.4288 10.825 69.0455 11.125C68.6788 11.425 68.3872 11.8 68.1705 12.25C67.9538 12.6833 67.8455 13.1917 67.8455 13.775C67.8455 14.575 68.0288 15.2083 68.3955 15.675C68.7622 16.1417 69.2205 16.5167 69.7705 16.8C70.3205 17.0833 70.9122 17.3167 71.5455 17.5C72.1955 17.6667 72.7955 17.8583 73.3455 18.075C73.8955 18.275 74.3538 18.5333 74.7205 18.85C75.0872 19.1667 75.2705 19.6 75.2705 20.15C75.2705 20.3833 75.2288 20.625 75.1455 20.875C75.0788 21.125 74.9455 21.3583 74.7455 21.575C74.5455 21.775 74.2705 21.95 73.9205 22.1C73.5705 22.2333 73.1288 22.3 72.5955 22.3C71.9288 22.3 71.3622 22.2 70.8955 22C70.4455 21.7833 70.0705 21.5333 69.7705 21.25C69.4872 20.95 69.2788 20.65 69.1455 20.35C69.0288 20.05 68.9705 19.8 68.9705 19.6H67.3455C67.3455 20.0667 67.4538 20.525 67.6705 20.975C67.8872 21.4083 68.2122 21.8 68.6455 22.15C69.0955 22.5 69.6372 22.7833 70.2705 23C70.9205 23.2 71.6705 23.3 72.5205 23.3C74.0538 23.3 75.2038 22.9667 75.9705 22.3C76.7538 21.6167 77.1455 20.725 77.1455 19.625C77.1455 18.825 76.9538 18.1833 76.5705 17.7C76.2038 17.2167 75.7372 16.8333 75.1705 16.55C74.6038 16.25 73.9872 16.0083 73.3205 15.825C72.6705 15.6417 72.0622 15.45 71.4955 15.25C70.9288 15.05 70.4538 14.8083 70.0705 14.525C69.7038 14.2417 69.5205 13.8417 69.5205 13.325C69.5205 13.1083 69.5622 12.8833 69.6455 12.65C69.7288 12.4 69.8705 12.175 70.0705 11.975C70.2705 11.7583 70.5372 11.5833 70.8705 11.45C71.2038 11.3 71.6205 11.225 72.1205 11.225C72.6205 11.225 73.0538 11.3 73.4205 11.45C73.7872 11.5833 74.0955 11.7583 74.3455 11.975C74.5955 12.175 74.7788 12.4 74.8955 12.65C75.0122 12.9 75.0705 13.1333 75.0705 13.35H76.4955ZM81.3322 10.5V23H83.4572V10.5H81.3322ZM81.0322 6.55C81.0322 6.91667 81.1656 7.23333 81.4322 7.5C81.6989 7.76667 82.0156 7.9 82.3822 7.9C82.7489 7.9 83.0656 7.76667 83.3322 7.5C83.5989 7.23333 83.7322 6.91667 83.7322 6.55C83.7322 6.18333 83.5989 5.86667 83.3322 5.6C83.0656 5.33333 82.7489 5.2 82.3822 5.2C82.0156 5.2 81.6989 5.33333 81.4322 5.6C81.1656 5.86667 81.0322 6.18333 81.0322 6.55ZM97.1477 24.05C97.1477 24.8167 97.056 25.4667 96.8727 26C96.6893 26.5333 96.431 26.9667 96.0977 27.3C95.781 27.6333 95.3977 27.875 94.9477 28.025C94.5143 28.175 94.0477 28.25 93.5477 28.25C92.6643 28.25 91.9477 28.025 91.3977 27.575C90.8643 27.125 90.3727 26.525 89.9227 25.775L88.5477 27.025C88.6643 27.175 88.8477 27.3667 89.0977 27.6C89.3477 27.85 89.6643 28.0917 90.0477 28.325C90.431 28.575 90.8893 28.7833 91.4227 28.95C91.956 29.1333 92.5643 29.225 93.2477 29.225C94.5143 29.225 95.5393 29.0417 96.3227 28.675C97.106 28.325 97.7143 27.85 98.1477 27.25C98.581 26.65 98.8727 25.9583 99.0227 25.175C99.1893 24.4083 99.2727 23.6083 99.2727 22.775V10.5H97.1477V12.45H97.0477C96.8477 11.75 96.4143 11.2083 95.7477 10.825C95.0977 10.425 94.2393 10.225 93.1727 10.225C92.3227 10.225 91.5477 10.3833 90.8477 10.7C90.1477 11 89.5477 11.4333 89.0477 12C88.5477 12.5667 88.156 13.25 87.8727 14.05C87.606 14.85 87.4727 15.7417 87.4727 16.725C87.4727 17.725 87.606 18.6333 87.8727 19.45C88.156 20.25 88.5477 20.9417 89.0477 21.525C89.5477 22.0917 90.1393 22.5333 90.8227 22.85C91.5227 23.15 92.2977 23.3 93.1477 23.3C94.081 23.3 94.8893 23.1167 95.5727 22.75C96.2727 22.3833 96.7643 21.8 97.0477 21H97.1477V24.05ZM97.1477 17.675C97.1477 18.375 97.0477 18.9917 96.8477 19.525C96.6643 20.0583 96.4143 20.5083 96.0977 20.875C95.781 21.2417 95.4143 21.525 94.9977 21.725C94.581 21.9083 94.1477 22 93.6977 22C93.2977 22 92.8643 21.9333 92.3977 21.8C91.9477 21.65 91.5227 21.3833 91.1227 21C90.7393 20.6167 90.4143 20.075 90.1477 19.375C89.8977 18.675 89.7727 17.775 89.7727 16.675C89.7727 15.5083 89.931 14.5833 90.2477 13.9C90.5643 13.2 90.931 12.6667 91.3477 12.3C91.781 11.9333 92.2143 11.7 92.6477 11.6C93.0977 11.4833 93.4477 11.425 93.6977 11.425C94.2477 11.425 94.7393 11.55 95.1727 11.8C95.606 12.0333 95.9643 12.3583 96.2477 12.775C96.5477 13.175 96.7727 13.6417 96.9227 14.175C97.0727 14.7083 97.1477 15.2583 97.1477 15.825V17.675ZM113.712 23V14.9C113.712 14.6 113.687 14.1917 113.637 13.675C113.587 13.1417 113.42 12.625 113.137 12.125C112.87 11.6083 112.437 11.1667 111.837 10.8C111.237 10.4167 110.387 10.225 109.287 10.225C108.803 10.2083 108.262 10.3083 107.662 10.525C107.062 10.725 106.47 11.1167 105.887 11.7L105.487 12.1H105.387V10.5H103.262V23H105.387V15.275C105.387 14.625 105.478 14.0667 105.662 13.6C105.845 13.1333 106.095 12.7417 106.412 12.425C106.728 12.1083 107.087 11.875 107.487 11.725C107.903 11.575 108.328 11.5 108.762 11.5C109.462 11.5 110.003 11.6417 110.387 11.925C110.77 12.1917 111.045 12.5083 111.212 12.875C111.395 13.2417 111.503 13.6083 111.537 13.975C111.57 14.3417 111.587 14.6083 111.587 14.775V23H113.712Z" fill="white"/>
</svg>
